<?xml version="1.0" encoding="UTF-8"?>
<!DOCTYPE svg PUBLIC "-//W3C//DTD SVG 1.1//EN" "http://www.w3.org/Graphics/SVG/1.1/DTD/svg11.dtd">
<!-- Creator: CorelDRAW X6 -->
<svg xmlns="http://www.w3.org/2000/svg" xml:space="preserve" width="287.109mm" height="48.031mm" version="1.1" style="shape-rendering:geometricPrecision; text-rendering:geometricPrecision; image-rendering:optimizeQuality; fill-rule:evenodd; clip-rule:evenodd"
viewBox="0 0 11027 1845"
 xmlns:xlink="http://www.w3.org/1999/xlink">
 <defs>
  <style type="text/css">
   <![CDATA[
    .fil0 {fill:#3D3A38}
    .fil1 {fill:#E5233D}
   ]]>
  </style>
 </defs>
 <g id="Layer_x0020_1">
  <metadata id="CorelCorpID_0Corel-Layer"/>
  <path class="fil0" d="M2536 1143l172 0 -87 -238 -85 238zm231 160l-28 -72 -234 0 -28 74c-11,29 -20,48 -28,58 -8,10 -20,15 -37,15 -15,0 -28,-5 -39,-16 -11,-11 -17,-23 -17,-37 0,-8 1,-16 4,-24 3,-8 7,-20 13,-35l148 -375c4,-11 9,-24 15,-39 6,-15 12,-28 19,-38 7,-10 15,-18 26,-24 11,-6 24,-9 40,-9 16,0 30,3 41,9 11,6 20,14 26,24 7,10 12,20 17,31 5,11 10,26 18,45l151 372c12,28 18,49 18,62 0,13 -6,26 -17,37 -11,11 -25,17 -40,17 -9,0 -17,-2 -24,-5 -7,-3 -12,-8 -17,-13 -4,-6 -9,-14 -14,-26 -5,-12 -10,-22 -13,-31z"/>
  <path class="fil0" d="M3172 1281l-92 -367 0 398c0,22 -5,39 -15,50 -10,11 -23,17 -39,17 -16,0 -29,-5 -39,-16 -10,-11 -15,-27 -15,-50l0 -456c0,-25 7,-42 20,-51 13,-9 31,-13 53,-13l36 0c22,0 38,2 47,6 10,4 17,11 22,21 5,10 10,27 16,50l84 316 84 -316c6,-23 11,-40 16,-50 5,-10 12,-17 22,-21 10,-4 26,-6 47,-6l36 0c22,0 40,4 53,13 13,9 20,26 20,51l0 456c0,22 -5,39 -15,50 -10,11 -23,17 -40,17 -15,0 -28,-6 -38,-17 -10,-11 -15,-28 -15,-50l0 -398 -92 367c-6,24 -11,41 -15,53 -4,11 -11,21 -21,30 -10,9 -24,14 -42,14 -14,0 -25,-3 -35,-9 -9,-6 -17,-13 -22,-23 -5,-9 -9,-19 -12,-30 -3,-11 -6,-23 -9,-35z"/>
  <path class="fil0" d="M4029 881l-263 0 0 142 242 0c18,0 31,4 40,12 9,8 13,19 13,32 0,13 -4,24 -13,32 -9,8 -22,12 -40,12l-242 0 0 164 272 0c18,0 32,4 42,13 9,9 14,20 14,34 0,14 -5,25 -14,33 -9,9 -23,13 -42,13l-317 0c-25,0 -44,-6 -55,-17 -11,-11 -17,-30 -17,-55l0 -434c0,-17 2,-30 7,-41 5,-11 13,-18 23,-23 11,-5 24,-7 41,-7l308 0c19,0 32,4 42,12 9,8 14,19 14,32 0,14 -5,25 -14,33 -9,8 -23,12 -42,12z"/>
  <path class="fil0" d="M4410 879l-108 0 0 159 105 0c28,0 52,-2 71,-7 19,-5 34,-13 44,-25 10,-12 15,-28 15,-48 0,-16 -4,-30 -12,-42 -8,-12 -19,-21 -34,-27 -14,-6 -41,-9 -81,-9zm-67 242l-41 0 0 185c0,24 -5,42 -16,54 -11,12 -25,17 -42,17 -19,0 -33,-6 -43,-18 -10,-12 -15,-30 -15,-53l0 -444c0,-25 6,-43 17,-55 11,-11 29,-17 55,-17l190 0c26,0 49,1 67,3 19,2 35,7 50,14 18,8 34,18 48,33 14,14 24,31 32,49 7,19 11,39 11,60 0,43 -12,77 -36,103 -24,26 -61,44 -110,55 21,11 41,27 59,49 19,21 36,44 51,69 15,24 26,46 35,66 8,20 12,33 12,40 0,8 -2,15 -7,23 -5,7 -11,13 -20,18 -8,4 -18,7 -29,7 -13,0 -24,-3 -33,-9 -9,-6 -17,-14 -23,-23 -6,-9 -15,-23 -26,-42l-47 -78c-17,-29 -32,-50 -45,-65 -13,-15 -27,-25 -40,-31 -14,-6 -31,-8 -52,-8z"/>
  <path class="fil0" d="M4770 1307l0 -454c0,-24 5,-41 16,-53 11,-12 25,-18 42,-18 18,0 32,6 43,18 11,12 16,29 16,53l0 454c0,24 -5,42 -16,54 -11,12 -25,18 -43,18 -17,0 -31,-6 -42,-18 -11,-12 -16,-30 -16,-53z"/>
  <path class="fil0" d="M5509 1186c0,18 -5,38 -14,60 -9,21 -23,42 -43,63 -19,21 -44,37 -74,50 -30,13 -65,19 -105,19 -30,0 -58,-3 -83,-9 -25,-6 -48,-15 -68,-27 -20,-12 -39,-28 -56,-48 -15,-18 -28,-38 -39,-61 -11,-22 -19,-46 -24,-72 -5,-25 -8,-52 -8,-81 0,-46 7,-88 20,-125 14,-37 33,-68 58,-94 25,-26 55,-46 89,-60 34,-14 70,-20 108,-20 47,0 88,9 125,28 36,19 64,42 84,69 19,27 29,53 29,78 0,13 -5,25 -14,35 -9,10 -21,15 -34,15 -15,0 -26,-4 -34,-11 -7,-7 -16,-19 -25,-37 -15,-29 -33,-50 -54,-64 -21,-14 -46,-21 -76,-21 -48,0 -86,18 -115,55 -28,36 -43,88 -43,155 0,45 6,82 19,112 13,30 30,52 53,67 23,15 50,22 81,22 34,0 62,-8 85,-25 23,-17 41,-41 52,-73 5,-15 11,-28 18,-37 7,-10 19,-14 35,-14 14,0 26,5 36,15 10,10 15,22 15,36z"/>
  <path class="fil0" d="M5752 1143l172 0 -87 -238 -85 238zm231 160l-28 -72 -234 0 -28 74c-11,29 -20,48 -28,58 -8,10 -20,15 -37,15 -15,0 -28,-5 -39,-16 -11,-11 -17,-23 -17,-37 0,-8 1,-16 4,-24 3,-8 7,-20 13,-35l148 -375c4,-11 9,-24 15,-39 6,-15 12,-28 19,-38 7,-10 15,-18 26,-24 11,-6 24,-9 40,-9 16,0 30,3 41,9 11,6 20,14 26,24 7,10 12,20 17,31 5,11 10,26 18,45l151 372c12,28 18,49 18,62 0,13 -6,26 -17,37 -11,11 -25,17 -40,17 -9,0 -17,-2 -24,-5 -7,-3 -12,-8 -17,-13 -4,-6 -9,-14 -14,-26 -5,-12 -9,-22 -13,-31z"/>
  <path class="fil0" d="M6346 851l225 340 0 -343c0,-22 5,-39 14,-50 10,-11 22,-17 39,-17 17,0 30,6 40,17 10,11 15,28 15,50l0 454c0,51 -21,76 -63,76 -10,0 -20,-2 -28,-5 -8,-3 -16,-8 -24,-14 -7,-7 -14,-14 -20,-23 -6,-9 -13,-18 -19,-27l-219 -336 0 338c0,22 -5,39 -15,50 -10,11 -23,17 -39,17 -17,0 -30,-6 -40,-17 -10,-11 -15,-28 -15,-50l0 -445c0,-19 2,-34 6,-44 5,-12 13,-21 25,-29 12,-7 24,-11 37,-11 10,0 19,2 27,5 7,3 14,8 20,14 6,6 11,13 17,22 6,9 12,19 18,29z"/>
  <path class="fil1" d="M7125 852l0 165 252 0 0 -165c0,-24 5,-41 16,-53 11,-12 25,-18 42,-18 18,0 32,6 43,18 11,12 16,29 16,53l0 454c0,24 -6,42 -17,54 -11,12 -25,18 -42,18 -18,0 -32,-6 -42,-18 -11,-12 -16,-30 -16,-53l0 -194 -252 0 0 194c0,24 -6,42 -17,54 -11,12 -25,18 -43,18 -18,0 -32,-6 -42,-18 -10,-12 -16,-30 -16,-53l0 -454c0,-24 5,-41 16,-53 10,-12 24,-18 42,-18 18,0 32,6 43,18 11,12 16,29 16,53z"/>
  <path class="fil1" d="M8039 1078c0,-42 -7,-79 -20,-110 -14,-31 -33,-54 -58,-70 -25,-16 -54,-24 -87,-24 -23,0 -45,4 -65,13 -20,9 -37,22 -51,38 -14,17 -26,38 -34,64 -8,26 -12,55 -12,88 0,33 4,62 12,89 8,26 20,48 35,66 15,17 32,30 52,39 20,9 41,13 64,13 30,0 57,-7 82,-22 25,-15 45,-38 60,-69 15,-31 22,-70 22,-115zm-166 -297c60,0 111,12 154,36 43,24 75,59 97,103 22,45 33,97 33,158 0,45 -6,85 -18,122 -12,36 -30,68 -54,95 -24,27 -54,47 -89,61 -35,14 -75,21 -121,21 -45,0 -86,-7 -121,-22 -36,-15 -65,-35 -89,-62 -24,-26 -42,-58 -54,-96 -12,-37 -18,-78 -18,-121 0,-44 6,-85 19,-122 13,-37 31,-68 55,-94 24,-26 54,-46 88,-60 35,-14 74,-21 118,-21z"/>
  <path class="fil1" d="M8696 1195c0,35 -9,66 -27,94 -18,28 -44,50 -79,65 -35,16 -76,24 -123,24 -57,0 -104,-11 -141,-32 -26,-15 -48,-36 -64,-62 -16,-26 -25,-51 -25,-75 0,-14 5,-26 15,-36 10,-10 22,-15 38,-15 12,0 23,4 31,12 9,8 16,20 22,35 7,18 15,34 24,46 9,12 21,22 36,30 16,8 36,12 61,12 35,0 63,-8 84,-24 22,-16 32,-36 32,-60 0,-19 -6,-35 -17,-47 -12,-12 -27,-21 -45,-27 -19,-6 -43,-13 -74,-20 -41,-10 -76,-21 -104,-34 -28,-13 -50,-31 -66,-53 -16,-22 -25,-50 -25,-84 0,-32 9,-60 26,-85 17,-25 42,-44 75,-57 33,-13 71,-20 116,-20 36,0 66,4 92,13 26,9 47,20 64,35 17,15 30,30 37,46 8,16 12,32 12,47 0,14 -5,26 -15,38 -10,11 -22,17 -37,17 -13,0 -24,-3 -30,-10 -7,-7 -14,-18 -23,-33 -11,-22 -23,-39 -38,-51 -15,-12 -38,-18 -71,-18 -30,0 -54,7 -73,20 -18,13 -28,29 -28,48 0,12 3,22 9,30 6,8 15,16 26,22 11,6 22,11 33,14 11,3 30,8 56,15 33,8 62,16 88,25 26,9 49,20 67,33 18,13 33,30 43,50 10,20 16,45 16,74z"/>
  <path class="fil1" d="M8990 879l-79 0 0 176 79 0c28,0 51,-3 69,-9 19,-6 33,-15 42,-28 10,-13 15,-30 15,-52 0,-25 -7,-46 -22,-62 -17,-17 -51,-26 -103,-26zm28 264l-107 0 0 163c0,23 -6,41 -17,53 -11,12 -25,18 -42,18 -17,0 -32,-6 -42,-18 -11,-12 -16,-29 -16,-53l0 -445c0,-26 6,-44 18,-55 12,-11 31,-17 56,-17l150 0c44,0 78,3 102,10 24,7 44,17 61,33 17,15 30,34 39,56 9,22 13,47 13,74 0,59 -18,103 -54,134 -36,30 -90,45 -162,45z"/>
  <path class="fil1" d="M9337 1307l0 -454c0,-24 5,-41 16,-53 11,-12 25,-18 42,-18 17,0 32,6 43,18 11,12 16,29 16,53l0 454c0,24 -5,42 -16,54 -11,12 -25,18 -43,18 -17,0 -31,-6 -41,-18 -11,-12 -16,-30 -16,-53z"/>
  <path class="fil1" d="M9959 888l-127 0 0 419c0,24 -5,42 -16,54 -11,12 -25,18 -42,18 -17,0 -31,-6 -42,-18 -11,-12 -16,-30 -16,-54l0 -419 -127 0c-20,0 -35,-4 -45,-13 -10,-9 -14,-20 -14,-35 0,-15 5,-27 15,-35 10,-9 25,-13 44,-13l371 0c20,0 35,4 45,13 10,9 15,21 15,35 0,14 -5,26 -15,35 -10,9 -25,13 -45,13z"/>
  <path class="fil1" d="M10175 1143l172 0 -87 -238 -85 238zm231 160l-28 -72 -235 0 -28 74c-11,29 -20,48 -28,58 -8,10 -20,15 -37,15 -15,0 -28,-5 -39,-16 -11,-11 -17,-23 -17,-37 0,-8 1,-16 4,-24 3,-8 7,-20 13,-35l147 -375c4,-11 9,-24 15,-39 6,-15 12,-28 19,-38 7,-10 16,-18 26,-24 11,-6 24,-9 40,-9 16,0 30,3 41,9 11,6 20,14 26,24 7,10 12,20 17,31 4,11 10,26 17,45l151 372c12,28 18,49 18,62 0,13 -6,26 -17,37 -11,11 -25,17 -40,17 -9,0 -17,-2 -24,-5 -6,-3 -12,-8 -17,-13 -4,-6 -9,-14 -14,-26 -5,-12 -10,-22 -13,-31z"/>
  <path class="fil1" d="M10731 852l0 420 237 0c19,0 33,5 43,14 10,9 15,21 15,35 0,14 -5,26 -15,34 -10,9 -25,13 -44,13l-282 0c-25,0 -44,-6 -55,-17 -11,-11 -17,-30 -17,-55l0 -444c0,-24 5,-41 16,-53 11,-12 25,-18 42,-18 18,0 32,6 43,18 11,12 16,29 16,53z"/>
  <path class="fil1" d="M1355 1201c-346,-290 -320,-510 -293,-745 27,-235 456,-420 570,3 123,455 -277,743 -277,743zm-952 139c-213,-196 -214,-342 -196,-500 18,-158 305,-282 382,2 82,305 -186,498 -186,498zm1498 322c-111,-111 -394,-314 -394,-314 0,0 432,-438 309,-927 -123,-484 -742,-623 -918,-30 -176,592 334,943 334,943l-369 297c0,0 -242,-109 -289,-183 0,0 304,-270 175,-686 -125,-404 -699,-308 -726,61 -27,369 175,591 228,631l-231 215c0,0 1,189 134,121 230,-201 246,-215 246,-215l461 269c0,0 293,-222 476,-374 0,0 296,233 417,321 121,87 206,-68 145,-129z"/>
  <path class="fil1" d="M181 1728c0,50 -41,91 -91,91 -50,0 -91,-41 -91,-91 0,-50 41,-91 91,-91 50,0 91,41 91,91z"/>
  <path class="fil1" d="M1932 1730c0,50 -41,91 -91,91 -50,0 -91,-41 -91,-91 0,-50 41,-91 91,-91 50,0 91,41 91,91z"/>
 </g>
</svg>
