<svg width="350" height="70" viewBox="0 0 350 70" fill="none" xmlns="http://www.w3.org/2000/svg">
<path d="M29.9486 40.7876C40.6836 40.7876 49.386 32.2317 49.386 21.6774C49.386 11.1231 40.6836 2.56714 29.9486 2.56714C19.2136 2.56714 10.5112 11.1231 10.5112 21.6774C10.5112 32.2317 19.2136 40.7876 29.9486 40.7876Z" fill="white"/>
<path d="M0.0075411 0H60.1384C60.1581 0.19654 60.1814 0.324352 60.1826 0.452163C60.2006 8.54206 60.2169 16.6312 60.2316 24.7195C60.2316 28.2958 60.2488 31.8733 60.1507 35.4508C59.9741 41.8896 58.0462 47.7855 54.3669 53.1382C51.063 57.9432 46.7325 61.6715 41.7104 64.6569C38.2392 66.7357 34.5187 68.3825 30.6347 69.5596C30.2663 69.6583 29.8769 69.6512 29.5125 69.5391C23.7594 67.7304 18.4577 65.0778 13.7286 61.3676C9.22524 57.8395 5.57422 53.629 3.18149 48.4297C1.65093 45.0958 0.629331 41.6292 0.290842 37.989C0.122824 36.1972 0.0271637 34.3909 0.0234844 32.5907C-0.00104378 22.0451 -0.00635817 11.4986 0.0075411 0.951352V0ZM30.382 5.14622C20.09 5.35603 14.1493 12.9319 14.0916 20.8598C14.0279 29.5245 21.2551 36.6686 30.0043 36.6891C39.0025 36.7096 46.1561 29.7041 46.1659 20.861C46.177 12.3857 38.9154 5.15587 30.382 5.14622Z" fill="#0096DB"/>
<path d="M28.2647 20.0482C28.1322 19.8456 27.9851 19.6526 27.8245 19.4706C26.625 18.3022 24.8357 18.3565 23.7356 19.6177C23.6244 19.7611 23.4785 19.875 23.3114 19.9492C23.1441 20.0232 22.9608 20.0552 22.7778 20.0422C21.674 20.0193 20.5702 20.0422 19.4665 20.0361C19.437 20.0361 19.4076 20.0072 19.3267 19.9638C19.47 18.654 19.9995 17.414 20.8499 16.3959C20.9005 16.3588 20.9589 16.3332 21.0209 16.3212C21.0829 16.3091 21.1468 16.3107 21.208 16.326C21.5367 16.402 21.8518 16.5418 22.1891 16.6033C22.3915 16.6419 22.6122 16.5816 22.8244 16.5659C22.7185 16.4042 22.5952 16.2542 22.4565 16.1186C22.2012 15.9376 21.9368 15.7693 21.6642 15.6146C22.1364 14.9092 22.8416 14.5716 23.5296 14.2243C24.756 13.6034 26.0805 13.4418 27.443 13.5298C27.5105 13.5298 27.6295 13.5298 27.638 13.5515C27.8196 14.1086 28.006 14.6644 28.1544 15.2287C28.2525 15.5905 27.9201 15.6628 27.6822 15.7689C27.5241 15.8352 27.3598 15.8861 27.1916 15.9208C26.8347 16.0028 26.7231 16.2126 26.8409 16.6154C27.1965 16.5888 27.5608 16.572 27.9238 16.5346C28.2868 16.4972 28.4965 16.631 28.5542 17.0085C28.6314 17.5197 28.7246 18.0309 28.8436 18.5338C28.9711 19.1053 28.7099 19.5261 28.2647 20.0482Z" fill="#0096DB"/>
<path d="M28.3594 9.35424C30.1524 9.02265 31.786 9.34098 33.4441 9.77385C33.2528 10.4877 33.07 11.1798 32.8824 11.8695C32.68 12.6098 32.6763 12.6146 33.3607 12.9462C35.7951 14.1231 37.3073 16.0535 38.0738 18.5748C38.2111 19.0257 38.2295 19.5116 38.3092 20.0277H35.7338C35.6246 19.5743 35.5277 19.1041 35.4002 18.6435C34.5736 15.6556 32.6248 13.6878 29.6851 12.6689C29.186 12.4965 28.9247 12.2758 28.8414 11.7682C28.7138 10.9796 28.5323 10.2007 28.3594 9.35424Z" fill="#0096DB"/>
<path d="M28.5459 28.1768C28.3975 27.4967 28.2675 26.8951 28.1375 26.2946C28.1313 26.1782 28.1052 26.0636 28.0602 25.9558C27.9526 25.8144 27.8332 25.6822 27.7033 25.5603C27.6089 25.7074 27.4384 25.8521 27.436 26.0004C27.4225 26.6165 27.436 27.2351 27.4875 27.85C27.5157 28.2238 27.4384 28.3649 27.0092 28.3902C24.8568 28.518 23.1276 27.6137 21.559 26.2994C21.4658 26.2198 21.4707 26.0233 21.4364 25.8798C21.4302 25.8533 21.4609 25.8195 21.4707 25.7882C21.9453 24.3412 21.9441 24.3509 23.4832 24.3798C24.2951 24.3943 25.1119 24.4208 25.9213 24.3666C27.0423 24.2906 27.9523 23.8095 28.4355 22.7617C28.6611 22.2697 29.0609 22.459 29.3933 22.4687C29.5012 22.4687 29.6545 22.752 29.6962 22.9269C29.8569 23.5912 29.9967 24.2629 30.1022 24.9381C30.123 25.0719 29.9709 25.2407 29.8802 25.3818C29.7894 25.5229 29.6619 25.6784 29.5515 25.8255C29.7101 25.889 29.8638 25.9635 30.0114 26.0486C30.1524 26.1414 30.3487 26.2463 30.3867 26.3826C30.6847 27.4244 30.632 27.5233 29.5822 27.8886C29.267 27.9995 28.9432 28.0695 28.5459 28.1768Z" fill="#0096DB"/>
<path d="M38.1273 22.4539C37.8525 24.3373 36.7561 25.6902 35.58 27.0925C36.0791 27.7412 36.5967 28.4116 37.1657 29.1423L36.1294 29.9116C35.8829 29.5711 35.6181 29.2438 35.3359 28.9313C35.2023 28.7975 34.968 28.7613 34.7767 28.6817C34.7608 28.8674 34.7043 29.0615 34.7399 29.2376C34.7972 29.5153 34.887 29.7856 35.0073 30.043C35.1581 30.3686 35.0526 30.5314 34.7301 30.6459C34.2506 30.8099 33.7821 31.0076 33.3026 31.1728C33.0389 31.2645 32.8758 31.2078 32.812 30.8774C32.644 29.9924 32.4171 29.1194 32.2515 28.2344C32.2413 28.1368 32.2536 28.0383 32.2873 27.9461C32.3211 27.8538 32.3755 27.7703 32.4465 27.7014C34.0323 26.4956 35.0097 24.9185 35.4525 23.017C35.5555 22.5769 35.7419 22.4141 36.2042 22.4431C36.826 22.4841 37.4503 22.4539 38.1273 22.4539Z" fill="#0096DB"/>
<path d="M33.9839 12.0568L34.9748 10.3036C35.6543 10.7642 36.2699 11.1681 36.8647 11.5986C36.9432 11.6553 36.969 11.8614 36.9346 11.9724C36.8619 12.1777 36.7613 12.3724 36.6354 12.5511C36.4723 12.7923 36.4968 12.9792 36.8279 13.1299L37.8569 12.351C38.112 12.638 38.3806 12.9129 38.6111 13.2167C38.6786 13.3047 38.6492 13.4748 38.6442 13.6062C38.6335 13.7469 38.6154 13.8869 38.5903 14.0258C38.7294 14.028 38.8679 14.0414 39.0048 14.0656C39.1434 14.1018 39.3482 14.1403 39.3936 14.2368C39.9835 15.4908 40.6053 16.734 41.0995 18.0253C41.3289 18.6282 41.297 19.3215 41.3951 20.0583C40.674 20.0583 40.0828 20.0715 39.4941 20.045C39.4022 20.045 39.2697 19.8738 39.2378 19.7604C39.1324 19.3746 39.0563 18.9803 38.984 18.586C38.4591 15.7428 36.7421 13.7497 34.3236 12.2557C34.2378 12.2027 34.1507 12.1544 33.9839 12.0568Z" fill="#0096DB"/>
<path d="M29.8035 16.2577L30.3075 15.7465C30.1469 15.6416 29.9788 15.5451 29.828 15.427C29.7201 15.3615 29.6347 15.2658 29.5827 15.1521C29.4895 14.8012 29.4331 14.4406 29.3301 13.9161C29.8685 14.1501 30.3321 14.2887 30.7257 14.5347C32.2971 15.4955 33.4879 16.955 34.1008 18.6717C34.5754 19.9643 34.4871 20.0595 33.1148 20.0595C32.8769 20.0595 32.6377 20.0439 32.4022 20.0595C31.8712 20.1017 31.388 20.0788 31.1758 19.4699C31.154 19.4153 31.121 19.3656 31.0788 19.3241C31.0366 19.2827 30.9861 19.2501 30.9305 19.2288C30.3173 19.0394 30.2205 18.5246 30.1223 18.0133C30.0034 17.3996 29.8967 16.7762 29.8035 16.2577Z" fill="#0096DB"/>
<path d="M21.8182 28.2684C21.9779 28.3098 22.1331 28.3664 22.2818 28.4373C24.8499 29.9694 27.5149 30.1021 30.2706 28.9886C30.4423 28.9186 30.6164 28.8595 30.9071 28.7473C31.1082 29.6967 31.3008 30.6087 31.4982 31.5412C28.8455 31.9707 26.4258 31.5074 24.217 30.1539C23.3524 29.6243 22.6055 28.9078 21.8047 28.2769L21.8182 28.2684Z" fill="#0096DB"/>
<path d="M19.7529 15.429C20.0546 14.9117 20.3048 14.3559 20.6666 13.8844C22.0868 12.0312 23.8847 10.6542 26.1217 9.85956C26.3878 9.76551 26.6687 9.71246 27.001 9.61841C27.1727 10.4926 27.3358 11.3173 27.4916 12.1228C26.5988 12.2048 25.7255 12.2048 24.8891 12.376C23.0103 12.7594 21.4061 13.6505 20.1687 15.1264C20.0539 15.2469 19.931 15.3597 19.8008 15.464L19.7529 15.429Z" fill="#0096DB"/>
<path d="M41.1766 22.4551C40.7926 24.6718 39.7941 26.4964 38.2731 28.1233L36.9863 27.0621C37.045 26.9225 37.1164 26.7885 37.1998 26.6617C38.0627 25.6013 38.6595 24.3561 38.9416 23.0268C39.0422 22.5685 39.2569 22.3888 39.7438 22.4394C40.1928 22.4925 40.6516 22.4551 41.1766 22.4551Z" fill="#0096DB"/>
<path d="M31.888 26.4851C31.5997 25.0698 31.3421 23.8005 31.0747 22.4841H34.2431C33.8751 24.0394 33.1919 25.3666 31.888 26.4851Z" fill="#0096DB"/>
<path d="M27.6389 22.4421C27.4242 23.0454 27.0464 23.3699 26.5349 23.5075C25.2236 23.8634 23.8952 23.8187 22.5054 23.6281C22.6464 23.2662 22.7507 22.9525 22.8967 22.6629C22.9332 22.6048 22.9827 22.5555 23.0413 22.5188C23.0999 22.482 23.1662 22.4587 23.2352 22.4506C24.6814 22.4373 26.124 22.4421 27.6389 22.4421Z" fill="#0096DB"/>
<path d="M19.4082 22.4442C20.1982 22.4442 20.944 22.4442 21.6885 22.4442C21.7879 22.4442 21.8873 22.4623 22.0823 22.4828C21.7548 22.9051 21.9878 23.6603 21.3255 23.7267C19.8253 23.8799 19.6744 23.7363 19.4082 22.4442Z" fill="white"/>
<path d="M29.9122 21.2645C29.4313 21.2645 29.1345 20.962 29.137 20.4739C29.1344 20.3699 29.1529 20.2663 29.1915 20.1694C29.2301 20.0725 29.288 19.9842 29.3618 19.9096C29.4356 19.835 29.5238 19.7754 29.6212 19.7348C29.7188 19.6941 29.8235 19.6728 29.9294 19.6724C30.1511 19.6792 30.3616 19.7701 30.5166 19.9261C30.6716 20.082 30.7592 20.2908 30.761 20.5088C30.7478 20.7187 30.6516 20.9151 30.493 21.0563C30.3344 21.1974 30.126 21.2721 29.9122 21.2645Z" fill="#0096DB"/>
<path d="M27.2171 20.0786H24.5283C25.0901 19.131 26.5057 19.1599 27.2171 20.0786Z" fill="#0096DB"/>
<path d="M19.8046 15.47L19.6958 15.5664L19.7545 15.4291C19.7704 15.4435 19.7875 15.4568 19.8046 15.47Z" fill="white"/>
<path d="M21.8048 28.2813L21.7393 28.2294L21.8172 28.2702L21.8048 28.2813Z" fill="white"/>
<path d="M19.6313 51.0392C19.6313 50.6557 19.6313 50.2735 19.6313 49.8901C19.6313 48.3741 19.6313 46.8579 19.6313 45.3419V45.1948H21.6108V47.3182L22.0829 46.8093L23.1867 45.6108C23.2995 45.4902 23.4099 45.3636 23.5264 45.2491C23.5589 45.2163 23.6026 45.1965 23.6491 45.1936C24.3359 45.1936 25.0226 45.1936 25.7094 45.1936C25.7205 45.1936 25.7315 45.1936 25.7658 45.202L23.3842 47.7788L25.8934 51.0705H25.7708C25.0717 51.0705 24.3726 51.0705 23.6736 51.0705C23.6385 51.072 23.6037 51.0645 23.5724 51.0486C23.5413 51.0328 23.5148 51.0091 23.4958 50.9801C23.0518 50.3965 22.6062 49.8145 22.159 49.2341C22.1357 49.2028 22.1099 49.1738 22.0707 49.128C21.9603 49.2486 21.8634 49.3692 21.7518 49.4693C21.704 49.5131 21.6669 49.567 21.6434 49.627C21.6198 49.6869 21.6103 49.7513 21.6157 49.8153C21.6243 50.1867 21.6157 50.5569 21.6157 50.9282V51.0633H19.6534L19.6313 51.0392Z" fill="white"/>
<path d="M29.5576 45.1909H31.5534V45.3393C31.5534 46.4488 31.5534 47.5595 31.5681 48.669C31.559 48.8323 31.5952 48.9949 31.6731 49.1394C31.7509 49.2839 31.8673 49.4048 32.0097 49.4891C32.4243 49.7303 33.1787 49.5977 33.294 48.9633C33.3397 48.7334 33.366 48.5003 33.3725 48.2662C33.3798 47.287 33.3725 46.3077 33.3725 45.3272V45.1933H35.3597V45.3212C35.3597 46.3451 35.3597 47.3714 35.3597 48.3904C35.37 48.8633 35.2776 49.3328 35.0886 49.7677C34.9487 50.0737 34.7427 50.346 34.4849 50.5657C34.2271 50.7854 33.9236 50.9473 33.5957 51.04C33.1356 51.1837 32.6517 51.2389 32.1704 51.2028C31.625 51.1832 31.0948 51.0209 30.6346 50.7325C30.3687 50.5568 30.1411 50.3305 29.9655 50.067C29.7898 49.8036 29.6695 49.5083 29.6116 49.1985C29.5653 48.9779 29.5414 48.7532 29.5404 48.5279C29.5319 47.4425 29.5404 46.3571 29.5404 45.2717C29.5404 45.2512 29.5404 45.2319 29.5404 45.2126L29.5576 45.1909Z" fill="white"/>
<path d="M41.463 45.2103V46.725H39.7223V51.0558H37.7094V46.7323H35.959V45.1934C35.9872 45.1934 36.0142 45.1874 36.0412 45.1874H41.3795C41.4004 45.1874 41.42 45.1874 41.4396 45.1874L41.463 45.2103Z" fill="white"/>
<path d="M28.3754 51.0608H26.3993L26.3809 51.0403V49.8681V45.1948H28.3926C28.3926 45.2226 28.4011 45.2527 28.4011 45.2829V50.9812C28.4011 51.0005 28.4011 51.021 28.4011 51.0403L28.3754 51.0608Z" fill="white"/>
<path d="M68.7231 28.127V17.251H71.3967V21.8498H71.5427L75.1998 17.251H78.3492L74.4247 22.1042L78.4167 28.127H75.2219L72.4662 23.8514L71.3967 25.1777V28.1258L68.7231 28.127Z" fill="#0096DB"/>
<path d="M82.2746 17.251V28.127H79.6011V17.251H82.2746Z" fill="#0096DB"/>
<path d="M84.1455 17.251H87.4568L90.2641 23.984H90.3928L93.2075 17.251H96.5188V28.127H93.9126V21.4458H93.8207L91.163 28.0583H89.4988L86.8412 21.4085H86.7492V28.127H84.1455V17.251Z" fill="#0096DB"/>
<path d="M97.8379 17.251H100.824L103.163 21.8015H103.261L105.595 17.251H108.581L104.534 24.494V28.127H101.884V24.494L97.8379 17.251Z" fill="#0096DB"/>
<path d="M119.625 22.689C119.625 23.8851 119.391 24.8995 118.924 25.7324C118.489 26.5305 117.83 27.1884 117.025 27.6278C116.202 28.0655 115.279 28.2885 114.343 28.2753C113.406 28.2897 112.481 28.0646 111.659 27.6218C110.856 27.181 110.199 26.5231 109.765 25.7263C109.299 24.8959 109.066 23.8843 109.066 22.6914C109.066 21.4985 109.299 20.484 109.765 19.6481C110.197 18.8501 110.855 18.1918 111.659 17.7526C112.487 17.3265 113.407 17.1039 114.342 17.1039C115.277 17.1039 116.197 17.3265 117.025 17.7526C117.83 18.192 118.489 18.85 118.924 19.6481C119.391 20.4785 119.625 21.492 119.625 22.689ZM116.893 22.689C116.91 22.0767 116.806 21.4671 116.587 20.8936C116.416 20.4442 116.11 20.0569 115.709 19.7835C115.308 19.51 114.831 19.3635 114.343 19.3635C113.855 19.3635 113.379 19.51 112.978 19.7835C112.577 20.0569 112.27 20.4442 112.099 20.8936C111.88 21.4671 111.776 22.0767 111.793 22.689C111.775 23.3009 111.878 23.9107 112.095 24.4844C112.266 24.9343 112.572 25.3222 112.973 25.5961C113.374 25.8699 113.851 26.0168 114.339 26.0168C114.828 26.0168 115.305 25.8699 115.706 25.5961C116.107 25.3222 116.413 24.9343 116.584 24.4844C116.804 23.9112 116.909 23.3014 116.893 22.689Z" fill="#0096DB"/>
<path d="M127.521 17.251V28.127H124.848V17.251H127.521Z" fill="#0096DB"/>
<path d="M139.322 17.089V27.965H137.054L132.651 21.6878H132.581V27.965H129.908V17.089H132.208L136.562 23.359H136.654V17.089H139.322Z" fill="#0096DB"/>
<path d="M140.32 19.3852V17.251H149.67V19.3852H146.311V28.127H143.674V19.3852H140.32Z" fill="#0096DB"/>
<path d="M151.181 28.127V17.251H158.895V19.3852H153.855V21.6159H158.5V23.7561H153.855V25.9916H158.895V28.127H151.181Z" fill="#0096DB"/>
<path d="M160.766 28.1273V17.2513H165.335C166.076 17.2328 166.811 17.3826 167.483 17.689C168.064 17.9618 168.551 18.3982 168.88 18.943C169.218 19.5303 169.389 20.1972 169.37 20.8722C169.37 21.6262 169.203 22.2661 168.869 22.7918C168.528 23.3256 168.03 23.7458 167.442 23.9976C166.752 24.2867 166.005 24.4269 165.254 24.4087H162.365V22.3336H164.758C165.102 22.3426 165.446 22.2895 165.771 22.1768C166.022 22.0852 166.238 21.916 166.384 21.6945C166.533 21.4455 166.607 21.1591 166.595 20.8698C166.607 20.5768 166.533 20.2867 166.384 20.033C166.237 19.8053 166.02 19.6304 165.763 19.5338C165.441 19.4133 165.097 19.3564 164.753 19.3662H163.434V28.1237L160.766 28.1273ZM166.995 23.1559L169.749 28.1273H166.831L164.133 23.1559H166.995Z" fill="#0096DB"/>
<path d="M180.448 17.251V28.127H178.179L173.783 21.8498H173.712V28.127H171.039V17.251H173.339L177.693 23.521H177.785V17.251H180.448Z" fill="#0096DB"/>
<path d="M184.713 28.127H181.838L185.571 17.251H189.128L192.861 28.127H189.987L187.396 19.9905H187.31L184.713 28.127ZM184.329 23.8465H190.338V25.8469H184.329V23.8465Z" fill="#0096DB"/>
<path d="M192.509 19.3852V17.251H201.859V19.3852H198.505V28.127H195.868V19.3852H192.509Z" fill="#0096DB"/>
<path d="M206.044 17.251V28.127H203.37V17.251H206.044Z" fill="#0096DB"/>
<path d="M218.358 22.689C218.358 23.8851 218.124 24.8995 217.656 25.7324C217.222 26.5305 216.562 27.1884 215.757 27.6278C214.929 28.0542 214.008 28.2763 213.073 28.2752C212.138 28.2742 211.217 28.05 210.39 27.6218C209.588 27.1806 208.931 26.5229 208.497 25.7263C208.031 24.8959 207.798 23.8843 207.798 22.6914C207.798 21.4985 208.031 20.484 208.497 19.6481C208.93 18.8504 209.587 18.1923 210.39 17.7526C211.218 17.3265 212.139 17.1039 213.074 17.1039C214.008 17.1039 214.929 17.3265 215.757 17.7526C216.562 18.192 217.222 18.85 217.656 19.6481C218.124 20.4785 218.358 21.492 218.358 22.689ZM215.625 22.689C215.642 22.0767 215.538 21.4671 215.319 20.8936C215.148 20.4458 214.844 20.0592 214.445 19.7843C214.145 19.5796 213.801 19.4448 213.441 19.3904C213.08 19.336 212.711 19.3634 212.363 19.4703C212.013 19.5773 211.694 19.7612 211.429 20.0079C211.163 20.2544 210.96 20.5574 210.831 20.8936C210.612 21.4671 210.508 22.0767 210.525 22.689C210.508 23.3012 210.612 23.9109 210.831 24.4844C211.001 24.9343 211.308 25.3222 211.709 25.5961C212.11 25.8699 212.587 26.0168 213.075 26.0168C213.563 26.0168 214.04 25.8699 214.441 25.5961C214.842 25.3222 215.149 24.9343 215.319 24.4844C215.538 23.9109 215.642 23.3012 215.625 22.689Z" fill="#0096DB"/>
<path d="M229.526 17.251V28.127H227.255L222.853 21.8498H222.782V28.127H220.108V17.251H222.409L226.763 23.521H226.855V17.251H229.526Z" fill="#0096DB"/>
<path d="M233.79 28.127H230.917L234.65 17.251H238.207L241.94 28.127H239.066L236.468 19.9905H236.382L233.79 28.127ZM233.408 23.8465H239.417V25.8469H233.408V23.8465Z" fill="#0096DB"/>
<path d="M243.332 28.127V17.251H246.006V25.9916H250.608V28.127H243.332Z" fill="#0096DB"/>
<path d="M262.353 17.251H265.028V24.2661C265.053 25.0037 264.853 25.7319 264.455 26.3573C264.056 26.9826 263.476 27.4767 262.791 27.7761C262.014 28.0994 261.18 28.2659 260.338 28.2659C259.495 28.2659 258.661 28.0994 257.885 27.7761C257.215 27.4759 256.648 26.993 256.249 26.3847C255.849 25.75 255.647 25.0147 255.665 24.2686V17.251H258.339V24.0382C258.33 24.3879 258.415 24.7337 258.584 25.0414C258.748 25.3326 258.992 25.5722 259.289 25.7324C259.614 25.8963 259.975 25.9819 260.34 25.9819C260.707 25.9819 261.068 25.8963 261.393 25.7324C261.688 25.5708 261.932 25.3316 262.098 25.0414C262.271 24.7347 262.358 24.3888 262.352 24.0382L262.353 17.251Z" fill="#0096DB"/>
<path d="M276.31 17.251V28.127H274.042L269.64 21.8498H269.565V28.127H266.892V17.251H269.197L273.551 23.521H273.643V17.251H276.31Z" fill="#0096DB"/>
<path d="M280.854 17.251V28.127H278.179V17.251H280.854Z" fill="#0096DB"/>
<path d="M285.237 17.251L287.716 25.2163H287.808L290.281 17.251H293.274L289.542 28.127H285.985L282.252 17.251H285.237Z" fill="#0096DB"/>
<path d="M294.662 28.127V17.251H302.375V19.3852H297.336V21.6159H301.981V23.7561H297.336V25.9916H302.375V28.127H294.662Z" fill="#0096DB"/>
<path d="M304.246 28.1273V17.2513H308.816C309.556 17.2329 310.291 17.3827 310.963 17.6889C311.544 17.9615 312.03 18.3979 312.359 18.943C312.698 19.53 312.868 20.1972 312.849 20.8722C312.849 21.6261 312.683 22.266 312.348 22.7918C312.007 23.3256 311.509 23.7458 310.921 23.9975C310.231 24.2867 309.484 24.4269 308.734 24.4087H305.844V22.3336H308.237C308.581 22.3426 308.925 22.2894 309.25 22.1768C309.501 22.0845 309.716 21.9155 309.863 21.6945C310.013 21.4453 310.086 21.1589 310.074 20.8698C310.085 20.5769 310.011 20.2869 309.863 20.033C309.716 19.8053 309.498 19.6304 309.241 19.5338C308.919 19.4133 308.577 19.3564 308.232 19.3662H306.914V28.1237L304.246 28.1273ZM310.474 23.1559L313.225 28.1273H310.308L307.61 23.1559H310.474Z" fill="#0096DB"/>
<path d="M320.491 20.5113C320.483 20.3349 320.435 20.1625 320.353 20.0055C320.271 19.8485 320.155 19.7107 320.014 19.601C319.731 19.3824 319.329 19.2734 318.806 19.2742C318.514 19.2666 318.224 19.3115 317.948 19.4069C317.743 19.4761 317.563 19.6016 317.429 19.7686C317.314 19.9212 317.251 20.1065 317.251 20.2967C317.241 20.4467 317.276 20.5964 317.351 20.7272C317.432 20.8586 317.543 20.9699 317.674 21.0527C317.835 21.1562 318.009 21.2393 318.191 21.2999C318.413 21.3767 318.641 21.4387 318.871 21.4856L319.822 21.699C320.322 21.8008 320.808 21.9573 321.273 22.1657C321.661 22.3405 322.018 22.5754 322.331 22.8614C322.612 23.1232 322.834 23.4398 322.982 23.791C323.134 24.1663 323.21 24.5666 323.209 24.9703C323.223 25.5991 323.037 26.2166 322.679 26.7379C322.302 27.2522 321.778 27.6455 321.175 27.869C320.521 28.1318 319.732 28.2629 318.811 28.262C317.986 28.2793 317.164 28.1405 316.392 27.8533C315.74 27.6098 315.181 27.1765 314.787 26.6113C314.406 26.0551 314.21 25.3522 314.199 24.5024H316.759C316.768 24.8155 316.867 25.1196 317.045 25.379C317.222 25.6181 317.465 25.8023 317.744 25.9096C318.074 26.0361 318.426 26.0974 318.779 26.0904C319.092 26.0978 319.405 26.0492 319.7 25.947C319.929 25.8691 320.132 25.7315 320.287 25.5491C320.422 25.3831 320.496 25.177 320.496 24.9643C320.498 24.7711 320.429 24.5837 320.303 24.4361C320.142 24.266 319.942 24.1352 319.721 24.0539C319.399 23.9268 319.065 23.8264 318.725 23.7537L317.569 23.4884C316.611 23.2722 315.857 22.9225 315.306 22.4394C314.756 21.9562 314.482 21.3023 314.484 20.4776C314.469 19.8448 314.662 19.2241 315.036 18.7087C315.43 18.1839 315.962 17.7745 316.576 17.5247C317.284 17.2307 318.048 17.0858 318.817 17.099C319.585 17.0818 320.347 17.2278 321.051 17.5271C321.646 17.7821 322.156 18.197 322.522 18.7244C322.877 19.254 323.063 19.8751 323.057 20.5089L320.491 20.5113Z" fill="#0096DB"/>
<path d="M327.431 17.251V28.127H324.754V17.251H327.431Z" fill="#0096DB"/>
<path d="M328.942 19.3852V17.251H338.293V19.3852H334.933V28.127H332.297V19.3852H328.942Z" fill="#0096DB"/>
<path d="M339.25 17.251H342.238L344.577 21.8015H344.674L347.012 17.251H350L345.953 24.494V28.127H343.296V24.494L339.25 17.251Z" fill="#0096DB"/>
<path d="M71.3967 38.593V49.4691H68.7231V38.593H71.3967Z" fill="#0096DB"/>
<path d="M82.6861 38.593V49.4691H80.4173L76.0145 43.1918H75.9446V49.4691H73.271V38.593H75.5717L79.9255 44.863H80.0175V38.593H82.6861Z" fill="#0096DB"/>
<path d="M87.6646 40.7272V38.593H97.0147V40.7272H93.6605V49.4691H91.0249V40.7272H87.6646Z" fill="#0096DB"/>
<path d="M99.5371 49.4691H96.6636L100.397 38.593H103.953L107.687 49.4691H104.814L102.217 41.3325H102.131L99.5371 49.4691ZM99.1544 45.1886H105.164V47.1889H99.1544V45.1886Z" fill="#0096DB"/>
<path d="M114.714 41.8534C114.705 41.677 114.657 41.5045 114.575 41.3475C114.492 41.1906 114.376 41.0527 114.236 40.9431C113.954 40.7248 113.55 40.6163 113.029 40.6163C112.735 40.6081 112.442 40.6531 112.164 40.749C111.96 40.8182 111.78 40.9437 111.645 41.1107C111.53 41.2636 111.468 41.4487 111.468 41.6388C111.457 41.7888 111.492 41.9384 111.567 42.0693C111.649 42.2007 111.76 42.312 111.892 42.3948C112.052 42.4982 112.225 42.5811 112.407 42.642C112.629 42.7185 112.857 42.7805 113.088 42.8277L114.038 43.0411C114.538 43.1419 115.025 43.2984 115.489 43.5078C115.877 43.6822 116.235 43.9172 116.547 44.2035C116.828 44.4649 117.05 44.7816 117.199 45.1331C117.351 45.5081 117.428 45.9086 117.425 46.3124C117.439 46.9413 117.254 47.5589 116.896 48.08C116.518 48.5938 115.995 48.9871 115.392 49.211C114.738 49.4739 113.95 49.605 113.029 49.6041C112.203 49.6216 111.382 49.4828 110.609 49.1954C109.958 48.9516 109.398 48.5183 109.004 47.9534C108.623 47.3972 108.426 46.6942 108.415 45.8445H110.976C110.985 46.1577 111.084 46.4618 111.263 46.7211C111.439 46.9605 111.682 47.1447 111.962 47.2517C112.291 47.3779 112.642 47.4394 112.996 47.4325C113.309 47.44 113.621 47.3913 113.917 47.289C114.145 47.211 114.348 47.0736 114.503 46.8911C114.638 46.7252 114.713 46.5192 114.714 46.3063C114.715 46.1132 114.645 45.9259 114.519 45.7782C114.359 45.6078 114.16 45.4769 113.939 45.396C113.616 45.2685 113.282 45.1681 112.942 45.0958L111.786 44.8305C110.828 44.615 110.074 44.2653 109.522 43.7815C108.971 43.2976 108.698 42.6436 108.702 41.8197C108.686 41.187 108.879 40.5663 109.253 40.0508C109.647 39.5271 110.179 39.1186 110.792 38.8692C111.501 38.5752 112.264 38.4303 113.034 38.4435C113.801 38.4254 114.563 38.5706 115.267 38.8692C115.863 39.1239 116.373 39.539 116.739 40.0665C117.092 40.5963 117.278 41.2173 117.273 41.851L114.714 41.8534Z" fill="#0096DB"/>
<path d="M118.978 49.4691V38.593H121.652V42.9579H126.01V38.593H128.679V49.4691H126.01V45.0981H121.652V49.4691H118.978Z" fill="#0096DB"/>
<path d="M130.551 49.4691V38.593H133.226V43.1918H133.371L137.028 38.593H140.18L136.255 43.4511L140.247 49.4799H137.05L134.293 45.1934L133.224 46.5197V49.4678L130.551 49.4691Z" fill="#0096DB"/>
<path d="M141.428 49.4691V38.593H149.142V40.7272H144.104V42.9579H148.749V45.0981H144.104V47.3336H149.144V49.4691H141.428Z" fill="#0096DB"/>
<path d="M160.428 38.593V49.4691H158.159L153.757 43.1918H153.687V49.4691H151.013V38.593H153.314L157.668 44.863H157.76V38.593H160.428Z" fill="#0096DB"/>
<path d="M161.939 40.7272V38.593H171.289V40.7272H167.935V49.4691H165.299V40.7272H161.939Z" fill="#0096DB"/>
</svg>
